<?xml version="1.0" encoding="utf-8"?>
<!-- Generator: Adobe Illustrator 16.0.0, SVG Export Plug-In . SVG Version: 6.00 Build 0)  -->
<!DOCTYPE svg PUBLIC "-//W3C//DTD SVG 1.1//EN" "http://www.w3.org/Graphics/SVG/1.1/DTD/svg11.dtd">
<svg version="1.1" id="Layer_1" xmlns="http://www.w3.org/2000/svg" xmlns:xlink="http://www.w3.org/1999/xlink" x="0px" y="0px"
	 width="188px" height="188px" viewBox="0 0 188 188" style="enable-background:new 0 0 188 188;" xml:space="preserve">
<g>
	<path d="M94,188c-51.832,0-94-42.169-94-94C0,42.168,42.168,0,94,0c51.832,0,94,42.168,94,94C188,145.832,145.832,188,94,188z
		 M94,10c-46.318,0-84,37.682-84,84s37.682,84,84,84s84-37.683,84-84S140.318,10,94,10z"/>
</g>
<g>
	<path d="M68.797,140.5c-0.861,0-1.723-0.223-2.495-0.667c-1.55-0.893-2.505-2.545-2.505-4.333v-81c0-1.764,0.93-3.398,2.446-4.299
		s3.397-0.936,4.945-0.092l72,39.221c1.587,0.864,2.584,2.517,2.608,4.323s-0.928,3.485-2.49,4.392l-72.001,41.779
		C70.531,140.275,69.664,140.5,68.797,140.5z M73.797,62.917v63.901l56.801-32.96L73.797,62.917z"/>
</g>
</svg>
